<svg xmlns="http://www.w3.org/2000/svg" version="1.1" xmlns:xlink="http://www.w3.org/1999/xlink" xmlns:svgjs="http://svgjs.com/svgjs" width="1430" height="560" preserveAspectRatio="none" viewBox="0 0 1430 560">
    <g mask="url(&quot;#SvgjsMask1000&quot;)" fill="none">
        <path d="M1082.759,372.287C1128.187,371.258,1173.983,353.814,1195.773,313.939C1216.855,275.36,1203.988,229.457,1181.429,191.723C1159.583,155.181,1125.248,127.589,1082.759,124.904C1035.055,121.89,985.283,137.259,959.835,177.72C932.911,220.528,933.5,276.517,960.511,319.27C985.938,359.516,1035.166,373.365,1082.759,372.287" fill="rgba(65, 148, 237, 1)" class="triangle-float2"></path>
        <path d="M227.372,287.967C257.053,288.837,285.397,273.877,300.378,248.239C315.489,222.378,314.767,190.217,299.571,164.406C284.595,138.969,256.889,124.046,227.372,124.235C198.185,124.422,170.82,139.743,156.756,165.319C143.159,190.045,147.344,219.712,161.424,244.166C175.537,268.678,199.099,287.138,227.372,287.967" fill="rgba(65, 148, 237, 1)" class="triangle-float1"></path>
        <path d="M1377.843,47.822C1394.299,47.402,1407.917,37.167,1416.895,23.37C1426.986,7.862,1436.158,-11.481,1426.827,-27.457C1417.54,-43.357,1396.24,-44.276,1377.843,-43.491C1361.172,-42.779,1344.382,-37.753,1335.602,-23.564C1326.386,-8.671,1326.258,10.383,1335.177,25.456C1343.941,40.267,1360.639,48.261,1377.843,47.822" fill="rgba(65, 148, 237, 1)" class="triangle-float3"></path>
        <path d="M260.701,371.209C284.263,370.592,309.206,367.222,322.321,347.638C336.817,325.992,338.346,297.316,325.28,274.777C312.25,252.3,286.676,241.922,260.701,241.341C233.51,240.733,205.171,248.609,190.92,271.774C176.079,295.897,176.958,327.833,193.228,351.017C207.682,371.613,235.548,371.867,260.701,371.209" fill="rgba(65, 148, 237, 1)" class="triangle-float2"></path>
    </g>
    <defs>
        <mask id="SvgjsMask1000">
            <rect width="1430" height="560" fill="#F0F2F5"></rect>
        </mask>
        <style>
            @keyframes float1 {
                0%{transform: translate(0, 0)}
                50%{transform: translate(-10px, 0)}
                100%{transform: translate(0, 0)}
            }

            .triangle-float1 {
                animation: float1 5s infinite;
            }

            @keyframes float2 {
                0%{transform: translate(0, 0)}
                50%{transform: translate(-5px, -5px)}
                100%{transform: translate(0, 0)}
            }

            .triangle-float2 {
                animation: float2 4s infinite;
            }

            @keyframes float3 {
                0%{transform: translate(0, 0)}
                50%{transform: translate(0, -10px)}
                100%{transform: translate(0, 0)}
            }

            .triangle-float3 {
                animation: float3 6s infinite;
            }
        </style>
    </defs>
</svg>