<svg viewBox="0 0 200 200" xmlns="http://www.w3.org/2000/svg">
  <path fill="#5F3BB3" d="M38.7,-62.4C51.3,-59.8,63.3,-51.6,72.2,-40.3C81.1,-29,87,-14.5,88.2,0.7C89.4,15.9,86.1,31.9,76.8,42.4C67.4,53,52,58.2,38.2,57.6C24.4,57,12.2,50.6,0.7,49.3C-10.7,48.1,-21.4,51.9,-32.5,50.9C-43.6,49.9,-54.9,44.1,-61.3,34.8C-67.6,25.5,-68.9,12.8,-69.5,-0.3C-70.1,-13.4,-70,-26.9,-64.1,-37C-58.3,-47.2,-46.7,-54,-35.1,-57.2C-23.4,-60.3,-11.7,-59.8,0.7,-61C13.1,-62.2,26.1,-65.1,38.7,-62.4Z" transform="translate(100 100)" />
</svg>