<svg id="Capa_1" enable-background="new 0 0 512 512" height="512" viewBox="0 0 512 512" width="512" xmlns="http://www.w3.org/2000/svg"><g><g><g><path d="m432.957 512h-335.47v-495.041c0-9.366 7.593-16.959 16.959-16.959h341.123c9.366 0 16.959 7.593 16.959 16.959v455.47c0 21.855-17.717 39.571-39.571 39.571z" fill="#e8e4d8"/><path d="m168.755 28.489c0-15.734 12.755-28.489 28.49-28.489h129.784c15.734 0 28.489 12.755 28.489 28.489 0 15.734-12.755 28.489-28.489 28.489h-129.784c-15.735.001-28.49-12.754-28.49-28.489z" fill="#f1eee0"/><path d="m472.53 16.96v455.47c0 21.85-17.72 39.57-39.57 39.57h-335.47v-108.16c16.88 3.09 34.28 4.7 52.05 4.7 158.78 0 287.49-128.71 287.49-287.48 0-43.25-9.55-84.27-26.65-121.06h45.19c9.36 0 16.96 7.59 16.96 16.96z" fill="#d8d4c9"/><path d="m472.53 253.48v218.95c0 21.85-17.72 39.57-39.57 39.57h-205.02c128.38-23.15 228.43-127.84 244.59-258.52z" fill="#b5b1a4"/><path d="m78.28 434.38h326.48c-21.44 0-38.81 17.37-38.81 38.81 0 20.85 16.44 37.86 37.07 38.77l-324.74.04c-21.43 0-38.81-17.38-38.81-38.81 0-21.44 17.38-38.81 38.81-38.81z" fill="#f1eee0"/><path d="m406.52 434.38v.04c-.58-.03-1.17-.04-1.76-.04z" fill="#f1eee0"/><g><path d="m236.491 434.377h-131.15c-14.164 0-25.646 11.482-25.646 25.646 0 14.164 11.482 25.646 25.646 25.646h131.149c14.164 0 25.646-11.482 25.646-25.646.001-14.163-11.482-25.646-25.645-25.646z" fill="#f9f8f2"/><path d="m173.173 434.377h-35.92c-14.164 0-25.646 11.482-25.646 25.646 0 14.164 11.482 25.646 25.646 25.646h35.92c14.164 0 25.646-11.482 25.646-25.646 0-14.163-11.482-25.646-25.646-25.646z" fill="#fff"/></g><path d="m406.51 511.96c-.58.03-1.16.04-1.75.04-.58 0-1.16-.01-1.74-.04z" fill="#8f8b81"/></g><path d="m125.976 263.171c-15.734 0-28.489-12.755-28.489-28.489v-129.784c0-15.734 12.755-28.489 28.489-28.489 15.734 0 28.489 12.755 28.489 28.489v129.784c.001 15.734-12.754 28.489-28.489 28.489z" fill="#f1eee0"/><path d="m154.466 175.374v-36.725c0-15.734-12.755-28.489-28.489-28.489-15.734 0-28.489 12.755-28.489 28.489v36.725c0 15.734 12.755 28.489 28.489 28.489 15.734.001 28.489-12.755 28.489-28.489z" fill="#f9f8f2"/><path d="m365.949 473.189c0-21.435 17.376-38.811 38.811-38.811 16.745 0 31.013 10.604 36.455 25.464 2.375 6.486-2.522 13.348-9.429 13.348h-65.837z" fill="#8f8b81"/></g><g><g><g><path d="m230.002 289.126h185.276c7.161 0 12.966 5.805 12.966 12.966 0 7.161-5.805 12.966-12.966 12.966h-185.276c-7.161 0-12.966-5.805-12.966-12.966 0-7.161 5.805-12.966 12.966-12.966z" fill="#8f8b81"/></g><g><path d="m256.873 315.059h99.249c7.161 0 12.966-5.805 12.966-12.966 0-7.161-5.805-12.966-12.966-12.966h-99.249c-7.161 0-12.966 5.805-12.966 12.966-.001 7.16 5.805 12.966 12.966 12.966z" fill="#b5b1a4"/><path d="m289.22 315.059h32.462c7.161 0 12.966-5.805 12.966-12.966 0-7.161-5.805-12.966-12.966-12.966h-32.462c-7.161 0-12.966 5.805-12.966 12.966 0 7.16 5.805 12.966 12.966 12.966z" fill="#d8d4c9"/></g></g><g><g><path d="m230.002 246.77h185.276c7.161 0 12.966 5.805 12.966 12.966 0 7.161-5.805 12.966-12.966 12.966h-185.276c-7.161 0-12.966-5.805-12.966-12.966 0-7.161 5.805-12.966 12.966-12.966z" fill="#8f8b81"/></g><g><path d="m285.023 272.703h99.249c7.161 0 12.966-5.805 12.966-12.966 0-7.161-5.805-12.966-12.966-12.966h-99.249c-7.161 0-12.966 5.805-12.966 12.966 0 7.16 5.805 12.966 12.966 12.966z" fill="#b5b1a4"/><path d="m317.371 272.703h32.462c7.161 0 12.966-5.805 12.966-12.966 0-7.161-5.805-12.966-12.966-12.966h-32.462c-7.161 0-12.966 5.805-12.966 12.966-.001 7.16 5.805 12.966 12.966 12.966z" fill="#d8d4c9"/></g></g><g><g><path d="m230.002 204.414h185.276c7.161 0 12.966 5.805 12.966 12.966 0 7.161-5.805 12.966-12.966 12.966h-185.276c-7.161 0-12.966-5.805-12.966-12.966 0-7.161 5.805-12.966 12.966-12.966z" fill="#8f8b81"/></g><g><path d="m286.873 230.346h99.249c7.161 0 12.966-5.805 12.966-12.966 0-7.161-5.805-12.966-12.966-12.966h-99.249c-7.161 0-12.966 5.805-12.966 12.966-.001 7.161 5.805 12.966 12.966 12.966z" fill="#b5b1a4"/><path d="m335.946 230.346h32.462c7.161 0 12.966-5.805 12.966-12.966 0-7.161-5.805-12.966-12.966-12.966h-32.462c-7.161 0-12.966 5.805-12.966 12.966 0 7.161 5.805 12.966 12.966 12.966z" fill="#d8d4c9"/></g></g><g><path d="m230.002 331.482h185.276c7.161 0 12.966 5.805 12.966 12.966 0 7.161-5.805 12.966-12.966 12.966h-185.276c-7.161 0-12.966-5.805-12.966-12.966 0-7.161 5.805-12.966 12.966-12.966z" fill="#8f8b81"/></g><g><path d="m251.04 357.415h99.249c7.161 0 12.966-5.805 12.966-12.966 0-7.161-5.805-12.966-12.966-12.966h-99.249c-7.161 0-12.966 5.805-12.966 12.966 0 7.161 5.805 12.966 12.966 12.966z" fill="#b5b1a4"/><path d="m273.033 357.415h32.462c7.161 0 12.966-5.805 12.966-12.966 0-7.161-5.805-12.966-12.966-12.966h-32.462c-7.161 0-12.966 5.805-12.966 12.966-.001 7.161 5.805 12.966 12.966 12.966z" fill="#d8d4c9"/></g><g><path d="m230.002 373.838h185.276c7.161 0 12.966 5.805 12.966 12.966 0 7.161-5.805 12.966-12.966 12.966h-185.276c-7.161 0-12.966-5.805-12.966-12.966 0-7.16 5.805-12.966 12.966-12.966z" fill="#8f8b81"/></g><g><path d="m154.836 386.805c0 7.161 5.805 12.966 12.966 12.966h8.134c7.161 0 12.966-5.805 12.966-12.966 0-7.161-5.805-12.966-12.966-12.966h-8.134c-7.161-.001-12.966 5.805-12.966 12.966z" fill="#0cc166"/></g><g><path d="m154.836 344.449c0 7.161 5.805 12.966 12.966 12.966h8.134c7.161 0 12.966-5.805 12.966-12.966 0-7.161-5.805-12.966-12.966-12.966h-8.134c-7.161-.001-12.966 5.804-12.966 12.966z" fill="#0cc166"/></g><g><path d="m154.836 302.092c0 7.161 5.805 12.966 12.966 12.966h8.134c7.161 0 12.966-5.805 12.966-12.966 0-7.161-5.805-12.966-12.966-12.966h-8.134c-7.161 0-12.966 5.805-12.966 12.966z" fill="#0cc166"/></g><g><path d="m154.836 259.736c0 7.161 5.805 12.966 12.966 12.966h8.134c7.161 0 12.966-5.805 12.966-12.966 0-7.161-5.805-12.966-12.966-12.966h-8.134c-7.161 0-12.966 5.805-12.966 12.966z" fill="#0cc166"/></g><g><path d="m154.836 217.38c0 7.161 5.805 12.966 12.966 12.966h8.134c7.161 0 12.966-5.805 12.966-12.966 0-7.161-5.805-12.966-12.966-12.966h-8.134c-7.161 0-12.966 5.805-12.966 12.966z" fill="#0cc166"/></g><g><g><path d="m154.836 47.744c0 7.161 5.805 12.966 12.966 12.966h8.134c7.161 0 12.966-5.805 12.966-12.966 0-7.161-5.805-12.966-12.966-12.966h-8.134c-7.161 0-12.966 5.805-12.966 12.966z" fill="#229bff"/></g><g><g><path d="m154.836 137.187c0 7.161 5.805 12.966 12.966 12.966h74.134c7.161 0 12.966-5.805 12.966-12.966 0-7.161-5.805-12.966-12.966-12.966h-74.134c-7.161 0-12.966 5.805-12.966 12.966z" fill="#8f8b81"/><path d="m209.305 124.221h-22.389c-7.161 0-12.966 5.805-12.966 12.966 0 7.161 5.805 12.966 12.966 12.966h22.389c7.161 0 12.966-5.805 12.966-12.966 0-7.161-5.805-12.966-12.966-12.966z" fill="#b5b1a4"/></g><g><path d="m154.836 98.944c0 7.161 5.805 12.966 12.966 12.966h50.134c7.161 0 12.966-5.805 12.966-12.966 0-7.161-5.805-12.966-12.966-12.966h-50.134c-7.161-.001-12.966 5.805-12.966 12.966z" fill="#b5b1a4"/><path d="m191.305 85.977h-10.389c-7.161 0-12.966 5.805-12.966 12.966 0 7.161 5.805 12.966 12.966 12.966h10.389c7.161 0 12.966-5.805 12.966-12.966 0-7.16-5.805-12.966-12.966-12.966z" fill="#d8d4c9"/></g></g></g><g><path d="m269.598 399.771h99.249c7.161 0 12.966-5.805 12.966-12.966 0-7.161-5.805-12.966-12.966-12.966h-99.249c-7.161 0-12.966 5.805-12.966 12.966 0 7.161 5.805 12.966 12.966 12.966z" fill="#b5b1a4"/><path d="m292.329 399.771h32.462c7.161 0 12.966-5.805 12.966-12.966 0-7.161-5.805-12.966-12.966-12.966h-32.462c-7.161 0-12.966 5.805-12.966 12.966 0 7.161 5.805 12.966 12.966 12.966z" fill="#d8d4c9"/></g></g><path d="m369.913 28.778c-36.289 0-65.812 29.523-65.812 65.812 0 10.384 2.351 20.322 6.988 29.54 1.771 3.521 6.061 4.94 9.583 3.168 3.521-1.771 4.94-6.062 3.168-9.583-3.626-7.209-5.465-14.99-5.465-23.125 0-28.418 23.12-51.538 51.538-51.538s51.538 23.12 51.538 51.538c0 13.953-5.649 27.161-15.436 36.775l-29.493-72.415c-1.095-2.688-3.708-4.445-6.61-4.445s-5.515 1.757-6.61 4.445l-33.141 81.373c-1.487 3.651.267 7.815 3.918 9.302 3.65 1.486 7.815-.267 9.302-3.918l10.639-26.123h31.784l10.639 26.123c1.568 4.132 7.062 5.779 10.647 3.195 17.93-12.294 28.635-32.598 28.635-54.312 0-36.289-29.523-65.812-65.812-65.812zm-10.079 76.532 10.079-24.747 10.079 24.747z" fill="#0cc166"/><path d="m359.843 86.327-.133-.052c-3.603-1.413-7.672.333-9.132 3.917l-12.291 30.179c-1.316 3.231-.075 6.935 2.914 8.733.041.025.082.05.124.074 3.71 2.231 8.541.606 10.174-3.404l12.305-30.214c1.484-3.642-.298-7.796-3.961-9.233z" fill="#29e088"/><path d="m345.873 101.745-1.846 4.533c-1.32 3.242-.076 6.976 2.942 8.749.042.024.083.049.124.073 3.722 2.186 8.517.579 10.145-3.418l1.85-4.542c1.395-3.425-.087-7.347-3.398-8.996-.043-.021-.085-.043-.128-.064-3.678-1.831-8.139-.14-9.689 3.665z" fill="#79ff79"/><path d="m427.148 86.582.142-.012c4.396-.375 7.333-4.641 6.198-8.904-7.484-28.112-33.137-48.888-63.575-48.888-24.222 0-45.418 13.159-56.842 32.698-1.768 3.024-.95 6.896 1.806 9.057.039.03.077.061.116.091 3.34 2.616 8.259 1.715 10.399-1.949 8.943-15.311 25.546-25.624 44.521-25.624 23.875 0 44.004 16.321 49.831 38.391.866 3.284 4.021 5.429 7.404 5.14z" fill="#29e088"/><path d="m411.203 54.864c.038-.029.076-.058.115-.087 3.607-2.731 3.823-8.146.33-11.021-11.36-9.354-25.899-14.978-41.734-14.978-12.532 0-24.245 3.534-34.22 9.646-3.663 2.244-4.419 7.258-1.644 10.537l.092.109c2.238 2.645 6.076 3.307 9.033 1.501 7.798-4.764 16.949-7.518 26.739-7.518 12.36 0 23.713 4.378 32.6 11.661 2.507 2.054 6.104 2.108 8.689.15z" fill="#79ff79"/></g></svg>